# xmcd CD database file
#
# Track frame offsets:
#	150
#	7945
#	27145
#	42747
#	56712
#	84217
#	101370
#	122682
#	143432
#	163467
#	180690
#	199420
#	209012
#	228395
#	247335
#	261682
#
# Disc length: 3784 seconds
#
# Revision: 11
# Processed by: cddbd v1.5.1PL2 Copyright (c) Steve Scherf et al.
# Submitted via: CDex 1.51
#
DISCID=eb0ec610
DTITLE=Alicia Keys - The Diary Of Alicia Keys
DYEAR=2004
DGENRE=R&B
TTITLE0=Harlem's Nocturne
TTITLE1=Karma
TTITLE2=Heartburn
TTITLE3=If I Was Your Woman/Walk On By
TTITLE4=You Don't Know My Name
TTITLE5=If I Ain't Got You
TTITLE6=Diary (feat. Tony! Toni! Tone!)
TTITLE7=Dragon Days
TTITLE8=Wake Up
TTITLE9=So Simple
TTITLE10=When You Really Love Someone
TTITLE11=Feeling U, Feeling Me (Interlude)
TTITLE12=Slow Down
TTITLE13=Samsonite Man
TTITLE14=Nobody Not Really
TTITLE15=Streets Of New York (feat. Nas and Rakim)
EXTD=YEAR: 2004
EXTT0=
EXTT1=
EXTT2=
EXTT3=
EXTT4=
EXTT5=
EXTT6=
EXTT7=
EXTT8=
EXTT9=
EXTT10=
EXTT11=
EXTT12=
EXTT13=
EXTT14=
EXTT15=
PLAYORDER=
